# xmcd
#
# Track frame offsets:
#	150
#	12355
#	25002
#	38798
#	55539
#	67010
#	81001
#	98043
#	111474
#	127686
#	143304
#
# Disc length: 2133 seconds
#
# Revision: 0
# Processed by: cddbd v1.5.2PL0 Copyright (c) Steve Scherf et al.
# Submitted via: EasyCDDAExtractor 16.1.0.1
#
DISCID=7e08530b
DTITLE=Bajor Imre - Rock and Roll a fotelbol
DYEAR=2007
DGENRE=Blues
TTITLE0=Rock and Roll a fotelbol
TTITLE1=Egy filler nelkul
TTITLE2=Whisky, szoda, cola, rum
TTITLE3=Hol van az a no?
TTITLE4=Szuszokazni, hajcsikazni imadok
TTITLE5=Hol vagytok, szep szavak?
TTITLE6=In flagranti
TTITLE7=Asszonyom, nem szerethetem
TTITLE8=A sanzonok most alszanak
TTITLE9=Ha ugy erzem, hogy ez a napom
TTITLE10=Ha egyszer bucsuzom
EXTD=
EXTT0=
EXTT1=
EXTT2=
EXTT3=
EXTT4=
EXTT5=
EXTT6=
EXTT7=
EXTT8=
EXTT9=
EXTT10=
PLAYORDER=
